<?xml version="1.0" standalone="no"?><svg xmlns="http://www.w3.org/2000/svg" viewBox="0 0 1440 320"><path fill="#000b76" fill-opacity="1" d="M0,128L0,128L49.7,128L49.7,288L99.3,288L99.3,288L149,288L149,160L198.6,160L198.6,96L248.3,96L248.3,0L297.9,0L297.9,64L347.6,64L347.6,288L397.2,288L397.2,128L446.9,128L446.9,320L496.6,320L496.6,64L546.2,64L546.2,224L595.9,224L595.9,64L645.5,64L645.5,128L695.2,128L695.2,192L744.8,192L744.8,224L794.5,224L794.5,32L844.1,32L844.1,288L893.8,288L893.8,160L943.4,160L943.4,288L993.1,288L993.1,224L1042.8,224L1042.8,64L1092.4,64L1092.4,96L1142.1,96L1142.1,128L1191.7,128L1191.7,96L1241.4,96L1241.4,96L1291,96L1291,320L1340.7,320L1340.7,192L1390.3,192L1390.3,96L1440,96L1440,320L1390.3,320L1390.3,320L1340.7,320L1340.7,320L1291,320L1291,320L1241.4,320L1241.4,320L1191.7,320L1191.7,320L1142.1,320L1142.1,320L1092.4,320L1092.4,320L1042.8,320L1042.8,320L993.1,320L993.1,320L943.4,320L943.4,320L893.8,320L893.8,320L844.1,320L844.1,320L794.5,320L794.5,320L744.8,320L744.8,320L695.2,320L695.2,320L645.5,320L645.5,320L595.9,320L595.9,320L546.2,320L546.2,320L496.6,320L496.6,320L446.9,320L446.9,320L397.2,320L397.2,320L347.6,320L347.6,320L297.9,320L297.9,320L248.3,320L248.3,320L198.6,320L198.6,320L149,320L149,320L99.3,320L99.3,320L49.7,320L49.7,320L0,320L0,320Z"></path></svg>